<svg width="190" height="36" viewBox="0 0 190 36" fill="none" xmlns="http://www.w3.org/2000/svg">
<path d="M181.089 20.9167V6.29893C181.089 4.68655 181.568 3.40197 182.525 2.44517C183.481 1.47066 184.846 0.983398 186.617 0.983398C187.22 0.983398 187.796 1.04541 188.345 1.16944C188.912 1.29347 189.39 1.48837 189.78 1.75415L188.69 4.75743C188.46 4.59796 188.203 4.47393 187.92 4.38534C187.636 4.29675 187.335 4.25245 187.016 4.25245C186.414 4.25245 185.944 4.42964 185.608 4.78401C185.289 5.12066 185.129 5.63449 185.129 6.32551V7.6544L185.235 9.4351V20.9167H181.089ZM178.883 10.1261V6.9368H188.797V10.1261H178.883Z" fill="white"/>
<path d="M171.667 20.9167V6.29893C171.667 4.68655 172.145 3.40197 173.102 2.44517C174.059 1.47066 175.423 0.983398 177.195 0.983398C177.797 0.983398 178.373 1.04541 178.922 1.16944C179.489 1.29347 179.968 1.48837 180.357 1.75415L179.268 4.75743C179.037 4.59796 178.781 4.47393 178.497 4.38534C178.214 4.29675 177.912 4.25245 177.593 4.25245C176.991 4.25245 176.521 4.42964 176.185 4.78401C175.866 5.12066 175.706 5.63449 175.706 6.32551V7.6544L175.813 9.4351V20.9167H171.667ZM169.461 10.1261V6.9368H179.374V10.1261H169.461Z" fill="white"/>
<path d="M160.012 21.1291C158.825 21.1291 157.762 20.8987 156.822 20.4381C155.901 19.9774 155.184 19.2775 154.67 18.3384C154.156 17.3816 153.899 16.1679 153.899 14.6973V6.61768H158.045V14.086C158.045 15.2731 158.293 16.1502 158.789 16.7172C159.303 17.2665 160.021 17.5411 160.942 17.5411C161.58 17.5411 162.147 17.4082 162.643 17.1424C163.139 16.8589 163.529 16.4337 163.812 15.8667C164.096 15.282 164.238 14.5555 164.238 13.6873V6.61768H168.384V20.9165H164.45V16.983L165.168 18.1258C164.689 19.118 163.981 19.8711 163.042 20.3849C162.12 20.881 161.11 21.1291 160.012 21.1291Z" fill="white"/>
<path d="M135.012 20.9166V2.31226H144.102C146.441 2.31226 148.195 2.75522 149.364 3.64114C150.551 4.52706 151.145 5.69648 151.145 7.14939C151.145 8.12391 150.906 8.97439 150.427 9.70085C149.949 10.4096 149.293 10.9589 148.46 11.3487C147.628 11.7385 146.671 11.9334 145.59 11.9334L146.095 10.8437C147.264 10.8437 148.301 11.0386 149.205 11.4284C150.108 11.8005 150.808 12.3586 151.304 13.1028C151.818 13.847 152.075 14.7595 152.075 15.8403C152.075 17.4349 151.446 18.6841 150.188 19.5877C148.93 20.4737 147.078 20.9166 144.633 20.9166H135.012ZM139.291 17.6741H144.314C145.431 17.6741 146.272 17.497 146.839 17.1426C147.424 16.7705 147.716 16.1858 147.716 15.3885C147.716 14.6089 147.424 14.033 146.839 13.6609C146.272 13.2711 145.431 13.0762 144.314 13.0762H138.972V9.94005H143.57C144.616 9.94005 145.413 9.76286 145.962 9.40849C146.529 9.03641 146.813 8.47828 146.813 7.7341C146.813 7.00764 146.529 6.46723 145.962 6.11286C145.413 5.74078 144.616 5.55473 143.57 5.55473H139.291V17.6741Z" fill="white"/>
<path d="M119.649 21.1293C118.018 21.1293 116.583 20.8104 115.343 20.1725C114.12 19.5346 113.173 18.6664 112.499 17.5679C111.826 16.4516 111.489 15.1848 111.489 13.7673C111.489 12.3321 111.817 11.0652 112.473 9.96668C113.146 8.85042 114.058 7.98221 115.21 7.36207C116.362 6.7242 117.664 6.40527 119.117 6.40527C120.517 6.40527 121.775 6.70649 122.891 7.30891C124.025 7.89362 124.92 8.74411 125.575 9.86037C126.231 10.9589 126.559 12.2789 126.559 13.8204C126.559 13.9799 126.55 14.166 126.532 14.3786C126.514 14.5735 126.497 14.7595 126.479 14.9367H114.865V12.5181H124.3L122.705 13.2357C122.705 12.4916 122.554 11.8448 122.253 11.2956C121.952 10.7463 121.536 10.3211 121.004 10.0198C120.472 9.7009 119.852 9.54144 119.144 9.54144C118.435 9.54144 117.806 9.7009 117.257 10.0198C116.725 10.3211 116.309 10.7552 116.007 11.3221C115.706 11.8714 115.556 12.527 115.556 13.2889V13.9268C115.556 14.7064 115.724 15.3974 116.061 15.9998C116.415 16.5845 116.902 17.0363 117.522 17.3553C118.16 17.6565 118.904 17.8071 119.755 17.8071C120.517 17.8071 121.181 17.6919 121.748 17.4616C122.333 17.2312 122.864 16.8857 123.343 16.4251L125.549 18.817C124.893 19.5612 124.069 20.1371 123.077 20.5446C122.085 20.9344 120.942 21.1293 119.649 21.1293Z" fill="white"/>
<path d="M105.622 20.9166V6.61784H109.768V20.9166H105.622ZM107.695 4.62452C106.933 4.62452 106.313 4.40304 105.834 3.96007C105.356 3.51711 105.117 2.96784 105.117 2.31226C105.117 1.65668 105.356 1.1074 105.834 0.664443C106.313 0.221481 106.933 0 107.695 0C108.456 0 109.077 0.212622 109.555 0.637866C110.033 1.04539 110.273 1.57694 110.273 2.23253C110.273 2.92354 110.033 3.49939 109.555 3.96007C109.094 4.40304 108.474 4.62452 107.695 4.62452Z" fill="white"/>
<path d="M94.6806 20.9165L88.6742 6.61768H92.9531L97.9497 18.9231H95.8235L101.006 6.61768H104.993L98.9596 20.9165H94.6806Z" fill="white"/>
<path d="M81.6414 21.1293C80.1176 21.1293 78.7621 20.8104 77.575 20.1725C76.4056 19.5346 75.4754 18.6664 74.7844 17.5679C74.1111 16.4516 73.7745 15.1848 73.7745 13.7673C73.7745 12.3321 74.1111 11.0652 74.7844 9.96668C75.4754 8.85042 76.4056 7.98221 77.575 7.36207C78.7621 6.7242 80.1176 6.40527 81.6414 6.40527C83.1474 6.40527 84.494 6.7242 85.6811 7.36207C86.8682 7.98221 87.7984 8.84156 88.4717 9.9401C89.145 11.0386 89.4817 12.3144 89.4817 13.7673C89.4817 15.1848 89.145 16.4516 88.4717 17.5679C87.7984 18.6664 86.8682 19.5346 85.6811 20.1725C84.494 20.8104 83.1474 21.1293 81.6414 21.1293ZM81.6414 17.7274C82.3324 17.7274 82.9525 17.5679 83.5018 17.249C84.051 16.93 84.4851 16.4782 84.8041 15.8935C85.123 15.2911 85.2825 14.5823 85.2825 13.7673C85.2825 12.9345 85.123 12.2258 84.8041 11.6411C84.4851 11.0564 84.051 10.6045 83.5018 10.2856C82.9525 9.96668 82.3324 9.80722 81.6414 9.80722C80.9503 9.80722 80.3302 9.96668 79.7809 10.2856C79.2317 10.6045 78.7887 11.0564 78.4521 11.6411C78.1331 12.2258 77.9737 12.9345 77.9737 13.7673C77.9737 14.5823 78.1331 15.2911 78.4521 15.8935C78.7887 16.4782 79.2317 16.93 79.7809 17.249C80.3302 17.5679 80.9503 17.7274 81.6414 17.7274Z" fill="white"/>
<path d="M50.8095 20.9166V2.31226H54.3709L62.2909 15.4416H60.4039L68.1911 2.31226H71.7259L71.779 20.9166H67.7393L67.7127 8.50485H68.4569L62.2378 18.9499H60.2976L53.9456 8.50485H54.8493V20.9166H50.8095Z" fill="white"/>
<path d="M165.154 33.4745C164.625 33.4745 164.151 33.3594 163.731 33.129C163.318 32.8919 162.992 32.5701 162.755 32.1636C162.518 31.7504 162.4 31.2795 162.4 30.7511C162.4 30.2159 162.518 29.7451 162.755 29.3386C162.992 28.9321 163.318 28.6137 163.731 28.3834C164.151 28.153 164.625 28.0378 165.154 28.0378C165.607 28.0378 166.017 28.1259 166.383 28.3021C166.749 28.4782 167.037 28.7424 167.247 29.0947L166.708 29.4605C166.525 29.1895 166.298 28.9897 166.027 28.861C165.757 28.7322 165.462 28.6679 165.143 28.6679C164.764 28.6679 164.422 28.756 164.117 28.9321C163.812 29.1015 163.572 29.342 163.396 29.6536C163.219 29.9652 163.131 30.3311 163.131 30.7511C163.131 31.1711 163.219 31.537 163.396 31.8486C163.572 32.1602 163.812 32.4041 164.117 32.5803C164.422 32.7496 164.764 32.8343 165.143 32.8343C165.462 32.8343 165.757 32.77 166.027 32.6413C166.298 32.5125 166.525 32.3161 166.708 32.0519L167.247 32.4177C167.037 32.7632 166.749 33.0274 166.383 33.2103C166.017 33.3865 165.607 33.4745 165.154 33.4745Z" fill="white"/>
<path d="M159.904 33.4238V28.0887H160.626V33.4238H159.904ZM160.27 26.9099C160.121 26.9099 159.996 26.8591 159.894 26.7575C159.793 26.6559 159.742 26.5339 159.742 26.3916C159.742 26.2494 159.793 26.1308 159.894 26.036C159.996 25.9344 160.121 25.8835 160.27 25.8835C160.419 25.8835 160.545 25.931 160.646 26.0258C160.748 26.1207 160.799 26.2392 160.799 26.3815C160.799 26.5305 160.748 26.6559 160.646 26.7575C160.551 26.8591 160.426 26.9099 160.27 26.9099Z" fill="white"/>
<path d="M154.919 35.446C154.432 35.446 153.964 35.3748 153.517 35.2326C153.07 35.0903 152.707 34.8871 152.43 34.6229L152.796 34.0741C153.046 34.2977 153.354 34.4738 153.72 34.6025C154.093 34.738 154.486 34.8058 154.899 34.8058C155.577 34.8058 156.074 34.6466 156.393 34.3282C156.711 34.0165 156.87 33.5287 156.87 32.8648V31.5336L156.972 30.619L156.901 29.7044V28.0887H157.592V32.7734C157.592 33.6947 157.365 34.3688 156.911 34.7956C156.464 35.2292 155.8 35.446 154.919 35.446ZM154.787 33.2205C154.279 33.2205 153.822 33.1121 153.415 32.8953C153.009 32.6717 152.687 32.3635 152.45 31.9706C152.22 31.5776 152.105 31.1271 152.105 30.619C152.105 30.1109 152.22 29.6638 152.45 29.2776C152.687 28.8847 153.009 28.5798 153.415 28.363C153.822 28.1462 154.279 28.0378 154.787 28.0378C155.261 28.0378 155.688 28.1361 156.068 28.3325C156.447 28.529 156.749 28.8203 156.972 29.2065C157.196 29.5926 157.307 30.0635 157.307 30.619C157.307 31.1745 157.196 31.6454 156.972 32.0315C156.749 32.4177 156.447 32.7124 156.068 32.9156C155.688 33.1189 155.261 33.2205 154.787 33.2205ZM154.858 32.5803C155.251 32.5803 155.6 32.499 155.905 32.3364C156.21 32.167 156.45 31.9367 156.627 31.6454C156.803 31.3473 156.891 31.0052 156.891 30.619C156.891 30.2328 156.803 29.8941 156.627 29.6028C156.45 29.3115 156.21 29.0845 155.905 28.9219C155.6 28.7526 155.251 28.6679 154.858 28.6679C154.472 28.6679 154.123 28.7526 153.812 28.9219C153.507 29.0845 153.266 29.3115 153.09 29.6028C152.921 29.8941 152.836 30.2328 152.836 30.619C152.836 31.0052 152.921 31.3473 153.09 31.6454C153.266 31.9367 153.507 32.167 153.812 32.3364C154.123 32.499 154.472 32.5803 154.858 32.5803Z" fill="white"/>
<path d="M149.687 33.4237V32.2449L149.657 32.0519V30.0804C149.657 29.6265 149.528 29.2776 149.271 29.0337C149.02 28.7898 148.644 28.6679 148.143 28.6679C147.797 28.6679 147.469 28.7255 147.157 28.8406C146.845 28.9558 146.581 29.1082 146.364 29.2979L146.039 28.7593C146.31 28.529 146.635 28.3529 147.015 28.2309C147.394 28.1022 147.794 28.0378 148.214 28.0378C148.905 28.0378 149.437 28.2106 149.809 28.5561C150.189 28.8948 150.378 29.4131 150.378 30.1109V33.4237H149.687ZM147.848 33.4745C147.448 33.4745 147.099 33.4102 146.801 33.2815C146.51 33.146 146.286 32.963 146.131 32.7327C145.975 32.4956 145.897 32.2246 145.897 31.9197C145.897 31.642 145.961 31.3913 146.09 31.1678C146.226 30.9374 146.442 30.7545 146.74 30.619C147.045 30.4767 147.452 30.4056 147.96 30.4056H149.799V30.9442H147.98C147.465 30.9442 147.106 31.0356 146.903 31.2186C146.707 31.4015 146.608 31.6284 146.608 31.8994C146.608 32.2043 146.727 32.4482 146.964 32.6311C147.201 32.814 147.533 32.9055 147.96 32.9055C148.366 32.9055 148.715 32.814 149.007 32.6311C149.305 32.4414 149.521 32.1704 149.657 31.8181L149.819 32.3161C149.684 32.6683 149.447 32.9495 149.108 33.1595C148.776 33.3695 148.356 33.4745 147.848 33.4745Z" fill="white"/>
<path d="M136.486 33.4237V26.3103H137.106L140.358 31.8588H140.033L143.254 26.3103H143.874V33.4237H143.153V27.4383H143.325L140.358 32.5193H140.002L137.015 27.4383H137.208V33.4237H136.486Z" fill="white"/>
<path d="M129.198 33.4745C128.643 33.4745 128.155 33.3594 127.735 33.129C127.315 32.8919 126.986 32.5701 126.749 32.1636C126.512 31.7504 126.394 31.2795 126.394 30.7511C126.394 30.2227 126.505 29.7552 126.729 29.3487C126.959 28.9423 127.271 28.6239 127.664 28.3935C128.064 28.1564 128.511 28.0378 129.005 28.0378C129.507 28.0378 129.95 28.153 130.336 28.3834C130.729 28.6069 131.038 28.9253 131.261 29.3386C131.485 29.7451 131.597 30.2159 131.597 30.7511C131.597 30.785 131.593 30.8222 131.586 30.8629C131.586 30.8968 131.586 30.934 131.586 30.9747H126.942V30.4361H131.2L130.916 30.6495C130.916 30.2633 130.831 29.9212 130.662 29.6231C130.499 29.3183 130.275 29.0811 129.991 28.9118C129.706 28.7424 129.378 28.6577 129.005 28.6577C128.639 28.6577 128.311 28.7424 128.02 28.9118C127.728 29.0811 127.501 29.3183 127.339 29.6231C127.176 29.928 127.095 30.2769 127.095 30.6698V30.7816C127.095 31.1881 127.183 31.5471 127.359 31.8588C127.542 32.1636 127.793 32.4041 128.111 32.5803C128.436 32.7496 128.805 32.8343 129.219 32.8343C129.544 32.8343 129.845 32.7767 130.123 32.6616C130.408 32.5464 130.651 32.3703 130.855 32.1331L131.261 32.6006C131.024 32.8851 130.726 33.1019 130.367 33.251C130.015 33.4 129.625 33.4745 129.198 33.4745Z" fill="white"/>
<path d="M123.898 33.4238V28.0887H124.619V33.4238H123.898ZM124.264 26.9099C124.114 26.9099 123.989 26.8591 123.888 26.7575C123.786 26.6559 123.735 26.5339 123.735 26.3916C123.735 26.2494 123.786 26.1308 123.888 26.036C123.989 25.9344 124.114 25.8835 124.264 25.8835C124.413 25.8835 124.538 25.931 124.64 26.0258C124.741 26.1207 124.792 26.2392 124.792 26.3815C124.792 26.5305 124.741 26.6559 124.64 26.7575C124.545 26.8591 124.419 26.9099 124.264 26.9099Z" fill="white"/>
<path d="M119.458 33.4239L117.09 28.0889H117.842L120.017 33.0378H119.661L121.866 28.0889H122.577L120.199 33.4239H119.458Z" fill="white"/>
<path d="M113.733 33.4745C113.218 33.4745 112.754 33.3594 112.341 33.129C111.934 32.8919 111.613 32.5701 111.376 32.1636C111.138 31.7504 111.02 31.2795 111.02 30.7511C111.02 30.2159 111.138 29.7451 111.376 29.3386C111.613 28.9321 111.934 28.6137 112.341 28.3834C112.747 28.153 113.211 28.0378 113.733 28.0378C114.262 28.0378 114.729 28.153 115.135 28.3834C115.549 28.6137 115.87 28.9321 116.101 29.3386C116.338 29.7451 116.457 30.2159 116.457 30.7511C116.457 31.2795 116.338 31.7504 116.101 32.1636C115.87 32.5701 115.549 32.8919 115.135 33.129C114.722 33.3594 114.255 33.4745 113.733 33.4745ZM113.733 32.8343C114.119 32.8343 114.461 32.7496 114.759 32.5803C115.058 32.4041 115.291 32.1602 115.461 31.8486C115.637 31.5302 115.725 31.1644 115.725 30.7511C115.725 30.3311 115.637 29.9652 115.461 29.6536C115.291 29.342 115.058 29.1015 114.759 28.9321C114.461 28.756 114.123 28.6679 113.743 28.6679C113.364 28.6679 113.025 28.756 112.727 28.9321C112.429 29.1015 112.192 29.342 112.016 29.6536C111.84 29.9652 111.752 30.3311 111.752 30.7511C111.752 31.1644 111.84 31.5302 112.016 31.8486C112.192 32.1602 112.429 32.4041 112.727 32.5803C113.025 32.7496 113.36 32.8343 113.733 32.8343Z" fill="white"/>
<path d="M101.701 33.4237V26.3103H102.32L105.572 31.8588H105.247L108.468 26.3103H109.088V33.4237H108.367V27.4383H108.54L105.572 32.5193H105.217L102.229 27.4383H102.422V33.4237H101.701Z" fill="white"/>
<path d="M94.0825 33.4745C93.5676 33.4745 93.1036 33.3594 92.6903 33.129C92.2839 32.8919 91.9621 32.5701 91.7249 32.1636C91.4878 31.7504 91.3693 31.2795 91.3693 30.7511C91.3693 30.2159 91.4878 29.7451 91.7249 29.3386C91.9621 28.9321 92.2839 28.6137 92.6903 28.3834C93.0968 28.153 93.5609 28.0378 94.0825 28.0378C94.6109 28.0378 95.0784 28.153 95.4849 28.3834C95.8981 28.6137 96.2199 28.9321 96.4502 29.3386C96.6874 29.7451 96.8059 30.2159 96.8059 30.7511C96.8059 31.2795 96.6874 31.7504 96.4502 32.1636C96.2199 32.5701 95.8981 32.8919 95.4849 33.129C95.0716 33.3594 94.6042 33.4745 94.0825 33.4745ZM94.0825 32.8343C94.4687 32.8343 94.8108 32.7496 95.1089 32.5803C95.4069 32.4041 95.6407 32.1602 95.81 31.8486C95.9862 31.5302 96.0743 31.1644 96.0743 30.7511C96.0743 30.3311 95.9862 29.9652 95.81 29.6536C95.6407 29.342 95.4069 29.1015 95.1089 28.9321C94.8108 28.756 94.4721 28.6679 94.0927 28.6679C93.7133 28.6679 93.3746 28.756 93.0765 28.9321C92.7784 29.1015 92.5413 29.342 92.3651 29.6536C92.189 29.9652 92.1009 30.3311 92.1009 30.7511C92.1009 31.1644 92.189 31.5302 92.3651 31.8486C92.5413 32.1602 92.7784 32.4041 93.0765 32.5803C93.3746 32.7496 93.7099 32.8343 94.0825 32.8343Z" fill="white"/>
<path d="M89.3503 33.4744C88.849 33.4744 88.4628 33.3389 88.1918 33.0679C87.9208 32.7969 87.7854 32.4141 87.7854 31.9196V26.9097H88.5069V31.8789C88.5069 32.1905 88.5848 32.431 88.7406 32.6004C88.9032 32.7698 89.1335 32.8545 89.4316 32.8545C89.75 32.8545 90.0142 32.763 90.2242 32.5801L90.4783 33.0984C90.336 33.2271 90.1632 33.3219 89.96 33.3829C89.7635 33.4439 89.5603 33.4744 89.3503 33.4744ZM86.8301 28.688V28.0885H90.1328V28.688H86.8301Z" fill="white"/>
<path d="M83.2149 28.0378C83.6485 28.0378 84.0279 28.1225 84.3531 28.2919C84.685 28.4545 84.9425 28.7051 85.1254 29.0439C85.3151 29.3826 85.4099 29.8094 85.4099 30.3243V33.4237H84.6884V30.3954C84.6884 29.8331 84.5461 29.4097 84.2616 29.1252C83.9838 28.8339 83.5909 28.6882 83.0828 28.6882C82.7034 28.6882 82.3715 28.7661 82.0869 28.9219C81.8092 29.071 81.5924 29.2912 81.4366 29.5825C81.2875 29.867 81.213 30.2125 81.213 30.619V33.4237H80.4915V28.0887H81.1825V29.552L81.0708 29.2776C81.2401 28.8915 81.5111 28.59 81.8837 28.3732C82.2563 28.1496 82.7001 28.0378 83.2149 28.0378Z" fill="white"/>
<path d="M77.4573 33.4238V28.0887H78.1788V33.4238H77.4573ZM77.8232 26.9099C77.6741 26.9099 77.5488 26.8591 77.4472 26.7575C77.3455 26.6559 77.2947 26.5339 77.2947 26.3916C77.2947 26.2494 77.3455 26.1308 77.4472 26.036C77.5488 25.9344 77.6741 25.8835 77.8232 25.8835C77.9722 25.8835 78.0975 25.931 78.1991 26.0258C78.3008 26.1207 78.3516 26.2392 78.3516 26.3815C78.3516 26.5305 78.3008 26.6559 78.1991 26.7575C78.1043 26.8591 77.979 26.9099 77.8232 26.9099Z" fill="white"/>
<path d="M70.3212 33.4745C69.7657 33.4745 69.2779 33.3594 68.8579 33.129C68.4379 32.8919 68.1093 32.5701 67.8722 32.1636C67.6351 31.7504 67.5165 31.2795 67.5165 30.7511C67.5165 30.2227 67.6283 29.7552 67.8519 29.3487C68.0822 28.9423 68.3938 28.6239 68.7868 28.3935C69.1865 28.1564 69.6336 28.0378 70.1281 28.0378C70.6295 28.0378 71.0732 28.153 71.4593 28.3834C71.8523 28.6069 72.1605 28.9253 72.3841 29.3386C72.6076 29.7451 72.7194 30.2159 72.7194 30.7511C72.7194 30.785 72.716 30.8222 72.7093 30.8629C72.7093 30.8968 72.7093 30.934 72.7093 30.9747H68.0653V30.4361H72.3231L72.0386 30.6495C72.0386 30.2633 71.9539 29.9212 71.7845 29.6231C71.6219 29.3183 71.3984 29.0811 71.1138 28.9118C70.8293 28.7424 70.5007 28.6577 70.1281 28.6577C69.7623 28.6577 69.4337 28.7424 69.1424 28.9118C68.8511 29.0811 68.6242 29.3183 68.4616 29.6231C68.299 29.928 68.2177 30.2769 68.2177 30.6698V30.7816C68.2177 31.1881 68.3058 31.5471 68.4819 31.8588C68.6648 32.1636 68.9155 32.4041 69.2339 32.5803C69.5591 32.7496 69.9283 32.8343 70.3415 32.8343C70.6667 32.8343 70.9682 32.7767 71.2459 32.6616C71.5305 32.5464 71.7744 32.3703 71.9776 32.1331L72.3841 32.6006C72.147 32.8851 71.8489 33.1019 71.4898 33.251C71.1376 33.4 70.748 33.4745 70.3212 33.4745Z" fill="white"/>
<path d="M63.7632 33.4239L61.3955 28.0889H62.1474L64.3221 33.0378H63.9664L66.1716 28.0889H66.8829L64.505 33.4239H63.7632Z" fill="white"/>
<path d="M59.3571 33.4238V28.0887H60.0786V33.4238H59.3571ZM59.7229 26.9099C59.5739 26.9099 59.4486 26.8591 59.347 26.7575C59.2453 26.6559 59.1945 26.5339 59.1945 26.3916C59.1945 26.2494 59.2453 26.1308 59.347 26.036C59.4486 25.9344 59.5739 25.8835 59.7229 25.8835C59.872 25.8835 59.9973 25.931 60.0989 26.0258C60.2006 26.1207 60.2514 26.2392 60.2514 26.3815C60.2514 26.5305 60.2006 26.6559 60.0989 26.7575C60.0041 26.8591 59.8788 26.9099 59.7229 26.9099Z" fill="white"/>
<path d="M50.8095 33.4237V26.3103H53.7056C54.4644 26.3103 55.1283 26.4627 55.6973 26.7676C56.2732 27.0657 56.7203 27.4823 57.0387 28.0175C57.3571 28.5527 57.5163 29.1692 57.5163 29.867C57.5163 30.5648 57.3571 31.1813 57.0387 31.7165C56.7203 32.2517 56.2732 32.6717 55.6973 32.9766C55.1283 33.2747 54.4644 33.4237 53.7056 33.4237H50.8095ZM51.5614 32.7734H53.665C54.295 32.7734 54.8404 32.6514 55.301 32.4075C55.7685 32.1569 56.1309 31.8147 56.3884 31.3812C56.6458 30.9408 56.7745 30.4361 56.7745 29.867C56.7745 29.2912 56.6458 28.7865 56.3884 28.3529C56.1309 27.9193 55.7685 27.5806 55.301 27.3367C54.8404 27.086 54.295 26.9607 53.665 26.9607H51.5614V32.7734Z" fill="white"/>
<path fill-rule="evenodd" clip-rule="evenodd" d="M24.1655 32.6422H24.2991C32.4709 32.6063 39.0844 25.9705 39.0844 17.7901C39.0844 9.58747 32.4349 2.9379 24.2323 2.9379C16.0297 2.9379 9.38024 9.58747 9.38024 17.7901C9.38024 25.9705 15.9937 32.6063 24.1655 32.6422ZM17.2313 32.6422C11.6669 30.0146 7.81687 24.352 7.81687 17.7901C7.81687 8.72404 15.1663 1.37451 24.2323 1.37451C33.2983 1.37451 40.6477 8.72404 40.6477 17.7901C40.6477 26.5942 33.717 33.7795 25.014 34.1875V34.2056H24.302C24.2788 34.2057 24.2556 34.2058 24.2323 34.2058C24.2091 34.2058 24.1858 34.2057 24.1626 34.2056H0V32.6422H17.2313ZM27.3593 9.58228C27.3593 11.0933 26.1344 12.3182 24.6234 12.3182C23.1124 12.3182 21.8875 11.0933 21.8875 9.58228C21.8875 8.07126 23.1124 6.84634 24.6234 6.84634C26.1344 6.84634 27.3593 8.07126 27.3593 9.58228ZM28.9226 9.58228C28.9226 11.9567 26.9978 13.8816 24.6234 13.8816C22.2489 13.8816 20.3241 11.9567 20.3241 9.58228C20.3241 7.20782 22.2489 5.28295 24.6234 5.28295C26.9978 5.28295 28.9226 7.20782 28.9226 9.58228ZM24.6234 28.7336C26.1344 28.7336 27.3593 27.5087 27.3593 25.9977C27.3593 24.4867 26.1344 23.2618 24.6234 23.2618C23.1124 23.2618 21.8875 24.4867 21.8875 25.9977C21.8875 27.5087 23.1124 28.7336 24.6234 28.7336ZM24.6234 30.297C26.9978 30.297 28.9226 28.3722 28.9226 25.9977C28.9226 23.6232 26.9978 21.6984 24.6234 21.6984C22.2489 21.6984 20.3241 23.6232 20.3241 25.9977C20.3241 28.3722 22.2489 30.297 24.6234 30.297ZM24.6233 19.3534C23.544 19.3534 22.669 18.4784 22.669 17.3991C22.669 16.3198 23.544 15.4449 24.6233 15.4449C25.7025 15.4449 26.5775 16.3198 26.5775 17.3991C26.5775 18.4784 25.7025 19.3534 24.6233 19.3534ZM24.6233 20.1351C23.1123 20.1351 21.8873 18.9101 21.8873 17.3991C21.8873 15.8881 23.1123 14.6632 24.6233 14.6632C26.1342 14.6632 27.3592 15.8881 27.3592 17.3991C27.3592 18.9101 26.1342 20.1351 24.6233 20.1351ZM24.6235 18.5719C23.9759 18.5719 23.451 18.0469 23.451 17.3993C23.451 16.7518 23.9759 16.2268 24.6235 16.2268C25.2711 16.2268 25.796 16.7518 25.796 17.3993C25.796 18.0469 25.2711 18.5719 24.6235 18.5719ZM33.2217 20.1351C31.7107 20.1351 30.4858 18.9102 30.4858 17.3991C30.4858 15.8881 31.7107 14.6632 33.2217 14.6632C34.7327 14.6632 35.9576 15.8881 35.9576 17.3991C35.9576 18.9102 34.7327 20.1351 33.2217 20.1351ZM33.2217 21.6985C30.8473 21.6985 28.9224 19.7736 28.9224 17.3991C28.9224 15.0247 30.8473 13.0998 33.2217 13.0998C35.5961 13.0998 37.521 15.0247 37.521 17.3991C37.521 19.7736 35.5961 21.6985 33.2217 21.6985ZM13.2889 17.3991C13.2889 18.9102 14.5138 20.1351 16.0248 20.1351C17.5358 20.1351 18.7607 18.9102 18.7607 17.3991C18.7607 15.8881 17.5358 14.6632 16.0248 14.6632C14.5138 14.6632 13.2889 15.8881 13.2889 17.3991ZM11.7255 17.3991C11.7255 19.7736 13.6504 21.6985 16.0248 21.6985C18.3992 21.6985 20.3241 19.7736 20.3241 17.3991C20.3241 15.0247 18.3992 13.0998 16.0248 13.0998C13.6504 13.0998 11.7255 15.0247 11.7255 17.3991Z" fill="#FF3827"/>
</svg>
